<?xml version="1.0" encoding="UTF-8" standalone="no" ?>
<!DOCTYPE svg PUBLIC "-//W3C//DTD SVG 1.1//EN" "http://www.w3.org/Graphics/SVG/1.1/DTD/svg11.dtd">
<svg xmlns="http://www.w3.org/2000/svg" xmlns:xlink="http://www.w3.org/1999/xlink" version="1.1" width="60" height="60" viewBox="0 0 57.14 57.14" xml:space="preserve">
<desc>Created with Fabric.js 3.6.3</desc>
<defs>
</defs>
<rect x="0" y="0" width="100%" height="100%" fill="rgba(224, 19, 19, 0)"></rect>
<g transform="matrix(1 0 0 1 359.69 32.59)"  >
<rect style="stroke: none; stroke-width: 1; stroke-dasharray: none; stroke-linecap: butt; stroke-dashoffset: 0; stroke-linejoin: miter; stroke-miterlimit: 4; fill: rgb(255,255,255); fill-rule: nonzero; opacity: 0.1;"  x="-24" y="-24" rx="24" ry="24" width="48" height="48" />
</g>
<g transform="matrix(1 0 0 1 360.19 33.34)"  >
<path style="stroke: none; stroke-width: 1; stroke-dasharray: none; stroke-linecap: butt; stroke-dashoffset: 0; stroke-linejoin: miter; stroke-miterlimit: 4; fill: rgb(255,255,255); fill-rule: nonzero; opacity: 1;"  transform=" translate(-280.5, -24.75)" d="M 280.5 21.6055 C 281.047 21.6055 281.566 21.7695 282.059 22.043 C 282.551 22.3164 282.934 22.6992 283.207 23.1914 C 283.48 23.6836 283.645 24.2031 283.645 24.75 C 283.645 25.3242 283.48 25.8438 283.207 26.3359 C 282.934 26.8281 282.551 27.2109 282.059 27.4844 C 281.566 27.7578 281.047 27.8945 280.5 27.8945 C 279.926 27.8945 279.406 27.7578 278.914 27.4844 C 278.422 27.2109 278.039 26.8281 277.766 26.3359 C 277.492 25.8438 277.355 25.3242 277.355 24.75 C 277.355 24.2031 277.492 23.6836 277.766 23.1914 C 278.039 22.6992 278.422 22.3164 278.914 22.043 C 279.406 21.7695 279.926 21.6055 280.5 21.6055 Z M 280.5 26.8008 C 281.047 26.8008 281.539 26.6094 281.949 26.1992 C 282.332 25.8164 282.551 25.3242 282.551 24.75 C 282.551 24.2031 282.332 23.7109 281.949 23.3008 C 281.539 22.918 281.047 22.6992 280.5 22.6992 C 279.926 22.6992 279.434 22.918 279.051 23.3008 C 278.641 23.7109 278.449 24.2031 278.449 24.75 C 278.449 25.3242 278.641 25.8164 279.051 26.1992 C 279.434 26.6094 279.926 26.8008 280.5 26.8008 Z M 284.52 21.4688 C 284.52 21.2773 284.438 21.1133 284.301 20.9492 C 284.137 20.8125 283.973 20.7305 283.781 20.7305 C 283.562 20.7305 283.398 20.8125 283.262 20.9492 C 283.098 21.1133 283.043 21.2773 283.043 21.4688 C 283.043 21.6875 283.098 21.8516 283.262 21.9883 C 283.398 22.1523 283.562 22.207 283.781 22.207 C 283.973 22.207 284.137 22.1523 284.273 21.9883 C 284.41 21.8516 284.492 21.6875 284.52 21.4688 Z M 286.598 22.207 C 286.598 22.7266 286.625 23.5742 286.625 24.75 C 286.625 25.9531 286.598 26.8008 286.57 27.3203 C 286.543 27.8398 286.461 28.2773 286.352 28.6602 C 286.188 29.125 285.914 29.5352 285.586 29.8633 C 285.258 30.1914 284.848 30.4375 284.41 30.6016 C 284.027 30.7383 283.562 30.8203 283.043 30.8477 C 282.523 30.875 281.676 30.875 280.5 30.875 C 279.297 30.875 278.449 30.875 277.93 30.8477 C 277.41 30.8203 276.973 30.7383 276.59 30.5742 C 276.125 30.4375 275.715 30.1914 275.387 29.8633 C 275.059 29.5352 274.812 29.125 274.648 28.6602 C 274.512 28.2773 274.43 27.8398 274.402 27.3203 C 274.375 26.8008 274.375 25.9531 274.375 24.75 C 274.375 23.5742 274.375 22.7266 274.402 22.207 C 274.43 21.6875 274.512 21.2227 274.648 20.8398 C 274.812 20.4023 275.059 19.9922 275.387 19.6641 C 275.715 19.3359 276.125 19.0625 276.59 18.8984 C 276.973 18.7891 277.41 18.707 277.93 18.6797 C 278.449 18.6523 279.297 18.625 280.5 18.625 C 281.676 18.625 282.523 18.6523 283.043 18.6797 C 283.562 18.707 284.027 18.7891 284.41 18.8984 C 284.848 19.0625 285.258 19.3359 285.586 19.6641 C 285.914 19.9922 286.188 20.4023 286.352 20.8398 C 286.461 21.2227 286.543 21.6875 286.598 22.207 Z M 285.285 28.3594 C 285.395 28.0586 285.449 27.5664 285.504 26.8828 C 285.504 26.5 285.531 25.9258 285.531 25.1875 V 24.3125 C 285.531 23.5742 285.504 23 285.504 22.6172 C 285.449 21.9336 285.395 21.4414 285.285 21.1406 C 285.066 20.5938 284.656 20.1836 284.109 19.9648 C 283.809 19.8555 283.316 19.8008 282.633 19.7461 C 282.223 19.7461 281.648 19.7188 280.938 19.7188 H 280.062 C 279.324 19.7188 278.75 19.7461 278.367 19.7461 C 277.684 19.8008 277.191 19.8555 276.891 19.9648 C 276.316 20.1836 275.934 20.5938 275.715 21.1406 C 275.605 21.4414 275.523 21.9336 275.496 22.6172 C 275.469 23.0273 275.469 23.6016 275.469 24.3125 V 25.1875 C 275.469 25.9258 275.469 26.5 275.496 26.8828 C 275.523 27.5664 275.605 28.0586 275.715 28.3594 C 275.934 28.9336 276.344 29.3164 276.891 29.5352 C 277.191 29.6445 277.684 29.7266 278.367 29.7539 C 278.75 29.7812 279.324 29.7812 280.062 29.7812 H 280.938 C 281.676 29.7812 282.25 29.7812 282.633 29.7539 C 283.316 29.7266 283.809 29.6445 284.109 29.5352 C 284.656 29.3164 285.066 28.9062 285.285 28.3594 Z" stroke-linecap="round" />
</g>
<g transform="matrix(1 0 0 1 28.55 28.78)"  >
<g style=""   >
		<g transform="matrix(1 0 0 1 0 0)"  >
<rect style="stroke: none; stroke-width: 1; stroke-dasharray: none; stroke-linecap: butt; stroke-dashoffset: 0; stroke-linejoin: miter; stroke-miterlimit: 4; fill: rgb(255,255,255); fill-rule: nonzero; opacity: 0.1;"  x="-24" y="-24" rx="24" ry="24" width="48" height="48" />
</g>
		<g transform="matrix(1 0 0 1 1 0.59)"  >
<path style="stroke: none; stroke-width: 1; stroke-dasharray: none; stroke-linecap: butt; stroke-dashoffset: 0; stroke-linejoin: miter; stroke-miterlimit: 4; fill: rgb(255,255,255); fill-rule: nonzero; opacity: 1;"  transform=" translate(-217, -24.59)" d="M 214.758 28.6055 C 214.758 28.6055 214.73 28.5781 214.703 28.5508 C 214.676 28.5508 214.648 28.5234 214.594 28.5234 C 214.484 28.5234 214.457 28.5781 214.457 28.6328 C 214.457 28.7148 214.484 28.7422 214.594 28.7422 C 214.703 28.7422 214.758 28.6875 214.758 28.6055 Z M 213.91 28.4961 C 213.91 28.4414 213.965 28.4141 214.074 28.4414 C 214.156 28.4688 214.184 28.4961 214.184 28.5508 C 214.184 28.6055 214.156 28.6328 214.129 28.6328 C 214.074 28.6602 214.047 28.6602 214.02 28.6328 C 213.965 28.6328 213.938 28.6055 213.91 28.5781 C 213.883 28.5508 213.883 28.5234 213.91 28.4961 Z M 215.113 28.4414 C 215.195 28.4414 215.25 28.4688 215.25 28.5234 C 215.25 28.5781 215.223 28.6328 215.141 28.6602 C 215.086 28.6602 215.059 28.6602 215.031 28.6602 C 215.004 28.6602 214.977 28.6055 214.977 28.5508 C 214.977 28.4961 215.004 28.4688 215.113 28.4414 Z M 216.918 17.9688 C 218.148 17.9688 219.297 18.2695 220.363 18.8438 C 221.402 19.4453 222.25 20.2383 222.852 21.2227 C 223.453 22.2617 223.781 23.4102 223.781 24.6406 C 223.781 26.1719 223.344 27.5117 222.496 28.7148 C 221.648 29.918 220.555 30.7383 219.188 31.1758 C 219.023 31.2305 218.914 31.2031 218.832 31.1211 C 218.75 31.0664 218.723 30.957 218.723 30.8477 V 28.5508 C 218.723 27.9766 218.559 27.5664 218.258 27.293 C 218.914 27.2383 219.434 27.1289 219.762 27.0195 C 220.254 26.8555 220.664 26.582 220.938 26.1992 C 221.238 25.7344 221.402 25.0781 221.402 24.2578 C 221.402 23.9297 221.32 23.6289 221.211 23.3555 C 221.102 23.1914 220.938 22.9453 220.691 22.6719 C 220.746 22.5078 220.801 22.2891 220.828 22.0156 C 220.828 21.6328 220.773 21.2227 220.637 20.8125 C 220.445 20.7578 220.199 20.8125 219.871 20.9219 C 219.652 21.0312 219.379 21.1406 219.105 21.3047 L 218.75 21.5508 C 218.176 21.3867 217.602 21.3047 217 21.3047 C 216.398 21.3047 215.852 21.3867 215.305 21.5508 L 214.949 21.3047 C 214.648 21.1406 214.375 21.0312 214.156 20.9219 C 213.828 20.8125 213.582 20.7578 213.418 20.8125 C 213.254 21.2227 213.172 21.6328 213.227 22.0156 C 213.227 22.2891 213.254 22.4805 213.336 22.6445 C 213.117 22.918 212.953 23.1914 212.844 23.4102 C 212.734 23.6289 212.707 23.9297 212.707 24.2578 C 212.707 25.0781 212.844 25.7344 213.145 26.1719 C 213.391 26.5547 213.773 26.8555 214.293 27.0195 C 214.621 27.1289 215.113 27.2383 215.77 27.293 C 215.523 27.5117 215.387 27.8398 215.332 28.2227 C 215.004 28.3867 214.703 28.4414 214.43 28.3867 C 213.938 28.3594 213.582 28.1133 213.336 27.6484 C 213.227 27.457 213.062 27.293 212.898 27.1562 C 212.762 27.1016 212.625 27.0195 212.488 26.9648 L 212.297 26.9375 C 212.078 26.9375 211.969 26.9922 211.969 27.0469 C 211.969 27.1016 211.996 27.1836 212.105 27.2383 L 212.242 27.3477 C 212.352 27.4297 212.488 27.5391 212.625 27.7031 C 212.734 27.8398 212.816 27.9766 212.898 28.1406 L 213.008 28.3594 C 213.09 28.6328 213.254 28.8516 213.527 28.9883 C 213.746 29.125 213.992 29.207 214.32 29.2344 C 214.539 29.2617 214.758 29.2617 215.004 29.207 L 215.305 29.1797 L 215.332 30.8477 C 215.332 30.957 215.277 31.0664 215.195 31.1211 C 215.113 31.2031 215.004 31.2305 214.867 31.1758 C 213.473 30.7383 212.352 29.918 211.504 28.7148 C 210.629 27.5117 210.219 26.1719 210.219 24.6406 C 210.219 23.4102 210.492 22.2891 211.094 21.25 C 211.668 20.2383 212.461 19.4453 213.5 18.8438 C 214.512 18.2695 215.66 17.9688 216.918 17.9688 Z M 212.871 27.4023 C 212.898 27.375 212.953 27.375 213.008 27.4297 C 213.062 27.4844 213.062 27.5391 213.035 27.5664 C 212.98 27.6211 212.953 27.5938 212.898 27.5391 C 212.844 27.4844 212.816 27.457 212.871 27.4023 Z M 212.57 27.1836 C 212.598 27.1562 212.652 27.1562 212.707 27.1836 C 212.762 27.2109 212.762 27.2383 212.762 27.293 C 212.734 27.3477 212.68 27.3477 212.625 27.293 C 212.57 27.2656 212.543 27.2383 212.57 27.1836 Z M 213.473 28.1406 C 213.473 28.1406 213.5 28.1406 213.555 28.1406 C 213.582 28.1406 213.609 28.168 213.637 28.1953 C 213.664 28.2227 213.691 28.25 213.691 28.2773 C 213.691 28.332 213.691 28.3594 213.691 28.3594 C 213.637 28.4141 213.555 28.4141 213.5 28.332 C 213.445 28.3047 213.445 28.2773 213.445 28.2227 C 213.445 28.1953 213.445 28.168 213.473 28.1406 Z M 213.145 27.7578 C 213.172 27.7578 213.199 27.7578 213.227 27.7578 C 213.254 27.7578 213.281 27.7852 213.309 27.8125 C 213.363 27.8945 213.363 27.9492 213.309 27.9766 C 213.281 28.0039 213.254 28.0039 213.227 27.9766 C 213.199 27.9766 213.172 27.9492 213.145 27.9219 C 213.09 27.8398 213.09 27.7852 213.145 27.7578 Z" stroke-linecap="round" />
</g>
</g>
</g>
</svg>