<?xml version="1.0" encoding="UTF-8" standalone="no" ?>
<!DOCTYPE svg PUBLIC "-//W3C//DTD SVG 1.1//EN" "http://www.w3.org/Graphics/SVG/1.1/DTD/svg11.dtd">
<svg xmlns="http://www.w3.org/2000/svg" xmlns:xlink="http://www.w3.org/1999/xlink" version="1.1" width="60" height="60" viewBox="0 0 57.14 57.14" xml:space="preserve">
<desc>Created with Fabric.js 3.6.3</desc>
<defs>
</defs>
<rect x="0" y="0" width="100%" height="100%" fill="rgba(224, 19, 19, 0)"></rect>
<g transform="matrix(1 0 0 1 28.98 28.88)"  >
<g style=""   >
		<g transform="matrix(1 0 0 1 0 0)"  >
<rect style="stroke: none; stroke-width: 1; stroke-dasharray: none; stroke-linecap: butt; stroke-dashoffset: 0; stroke-linejoin: miter; stroke-miterlimit: 4; fill: rgb(255,255,255); fill-rule: nonzero; opacity: 0.1;"  x="-24" y="-24" rx="24" ry="24" width="48" height="48" />
</g>
		<g transform="matrix(1 0 0 1 -0.17 -0.3)"  >
<path style="stroke: none; stroke-width: 1; stroke-dasharray: none; stroke-linecap: butt; stroke-dashoffset: 0; stroke-linejoin: miter; stroke-miterlimit: 4; fill: rgb(255,255,255); fill-rule: nonzero; opacity: 1;"  transform=" translate(-280.5, -24.75)" d="M 280.5 21.6055 C 281.047 21.6055 281.566 21.7695 282.059 22.043 C 282.551 22.3164 282.934 22.6992 283.207 23.1914 C 283.48 23.6836 283.645 24.2031 283.645 24.75 C 283.645 25.3242 283.48 25.8438 283.207 26.3359 C 282.934 26.8281 282.551 27.2109 282.059 27.4844 C 281.566 27.7578 281.047 27.8945 280.5 27.8945 C 279.926 27.8945 279.406 27.7578 278.914 27.4844 C 278.422 27.2109 278.039 26.8281 277.766 26.3359 C 277.492 25.8438 277.355 25.3242 277.355 24.75 C 277.355 24.2031 277.492 23.6836 277.766 23.1914 C 278.039 22.6992 278.422 22.3164 278.914 22.043 C 279.406 21.7695 279.926 21.6055 280.5 21.6055 Z M 280.5 26.8008 C 281.047 26.8008 281.539 26.6094 281.949 26.1992 C 282.332 25.8164 282.551 25.3242 282.551 24.75 C 282.551 24.2031 282.332 23.7109 281.949 23.3008 C 281.539 22.918 281.047 22.6992 280.5 22.6992 C 279.926 22.6992 279.434 22.918 279.051 23.3008 C 278.641 23.7109 278.449 24.2031 278.449 24.75 C 278.449 25.3242 278.641 25.8164 279.051 26.1992 C 279.434 26.6094 279.926 26.8008 280.5 26.8008 Z M 284.52 21.4688 C 284.52 21.2773 284.438 21.1133 284.301 20.9492 C 284.137 20.8125 283.973 20.7305 283.781 20.7305 C 283.562 20.7305 283.398 20.8125 283.262 20.9492 C 283.098 21.1133 283.043 21.2773 283.043 21.4688 C 283.043 21.6875 283.098 21.8516 283.262 21.9883 C 283.398 22.1523 283.562 22.207 283.781 22.207 C 283.973 22.207 284.137 22.1523 284.273 21.9883 C 284.41 21.8516 284.492 21.6875 284.52 21.4688 Z M 286.598 22.207 C 286.598 22.7266 286.625 23.5742 286.625 24.75 C 286.625 25.9531 286.598 26.8008 286.57 27.3203 C 286.543 27.8398 286.461 28.2773 286.352 28.6602 C 286.188 29.125 285.914 29.5352 285.586 29.8633 C 285.258 30.1914 284.848 30.4375 284.41 30.6016 C 284.027 30.7383 283.562 30.8203 283.043 30.8477 C 282.523 30.875 281.676 30.875 280.5 30.875 C 279.297 30.875 278.449 30.875 277.93 30.8477 C 277.41 30.8203 276.973 30.7383 276.59 30.5742 C 276.125 30.4375 275.715 30.1914 275.387 29.8633 C 275.059 29.5352 274.812 29.125 274.648 28.6602 C 274.512 28.2773 274.43 27.8398 274.402 27.3203 C 274.375 26.8008 274.375 25.9531 274.375 24.75 C 274.375 23.5742 274.375 22.7266 274.402 22.207 C 274.43 21.6875 274.512 21.2227 274.648 20.8398 C 274.812 20.4023 275.059 19.9922 275.387 19.6641 C 275.715 19.3359 276.125 19.0625 276.59 18.8984 C 276.973 18.7891 277.41 18.707 277.93 18.6797 C 278.449 18.6523 279.297 18.625 280.5 18.625 C 281.676 18.625 282.523 18.6523 283.043 18.6797 C 283.562 18.707 284.027 18.7891 284.41 18.8984 C 284.848 19.0625 285.258 19.3359 285.586 19.6641 C 285.914 19.9922 286.188 20.4023 286.352 20.8398 C 286.461 21.2227 286.543 21.6875 286.598 22.207 Z M 285.285 28.3594 C 285.395 28.0586 285.449 27.5664 285.504 26.8828 C 285.504 26.5 285.531 25.9258 285.531 25.1875 V 24.3125 C 285.531 23.5742 285.504 23 285.504 22.6172 C 285.449 21.9336 285.395 21.4414 285.285 21.1406 C 285.066 20.5938 284.656 20.1836 284.109 19.9648 C 283.809 19.8555 283.316 19.8008 282.633 19.7461 C 282.223 19.7461 281.648 19.7188 280.938 19.7188 H 280.062 C 279.324 19.7188 278.75 19.7461 278.367 19.7461 C 277.684 19.8008 277.191 19.8555 276.891 19.9648 C 276.316 20.1836 275.934 20.5938 275.715 21.1406 C 275.605 21.4414 275.523 21.9336 275.496 22.6172 C 275.469 23.0273 275.469 23.6016 275.469 24.3125 V 25.1875 C 275.469 25.9258 275.469 26.5 275.496 26.8828 C 275.523 27.5664 275.605 28.0586 275.715 28.3594 C 275.934 28.9336 276.344 29.3164 276.891 29.5352 C 277.191 29.6445 277.684 29.7266 278.367 29.7539 C 278.75 29.7812 279.324 29.7812 280.062 29.7812 H 280.938 C 281.676 29.7812 282.25 29.7812 282.633 29.7539 C 283.316 29.7266 283.809 29.6445 284.109 29.5352 C 284.656 29.3164 285.066 28.9062 285.285 28.3594 Z" stroke-linecap="round" />
</g>
</g>
</g>
</svg>